<svg xmlns="http://www.w3.org/2000/svg" xmlns:xlink="http://www.w3.org/1999/xlink" viewBox="0 0 207.87 209.32"><defs><style>.cls-1{isolation:isolate;}.cls-2{fill:url(#linear-gradient);}.cls-3{fill:url(#linear-gradient-2);}.cls-4{fill:url(#linear-gradient-3);}.cls-5{fill:url(#linear-gradient-4);}.cls-6{fill:url(#linear-gradient-5);}.cls-7{fill:#91b3fa;}.cls-18,.cls-8{fill:#fff;}.cls-9{opacity:0.6;}.cls-10{opacity:0.24;}.cls-11{fill:url(#linear-gradient-6);}.cls-12{fill:url(#linear-gradient-7);}.cls-13{fill:url(#linear-gradient-8);}.cls-14{fill:url(#linear-gradient-9);}.cls-15{fill:url(#linear-gradient-10);}.cls-16{fill:url(#linear-gradient-11);}.cls-17{fill:url(#linear-gradient-12);}.cls-18{mix-blend-mode:soft-light;}.cls-19{opacity:0.3;}.cls-20{fill:url(#linear-gradient-13);}.cls-21{fill:url(#linear-gradient-14);}.cls-22{fill:url(#linear-gradient-15);}.cls-23{fill:url(#linear-gradient-16);}.cls-24{fill:url(#linear-gradient-17);}.cls-25{fill:url(#linear-gradient-18);}.cls-26{fill:url(#linear-gradient-19);}.cls-27{fill:url(#linear-gradient-20);}.cls-28{fill:url(#linear-gradient-21);}.cls-29{fill:url(#linear-gradient-22);}.cls-30{fill:url(#linear-gradient-23);}.cls-31{fill:url(#linear-gradient-24);}.cls-32{fill:url(#linear-gradient-25);}.cls-33{fill:url(#linear-gradient-26);}.cls-34{fill:url(#linear-gradient-27);}.cls-35{fill:url(#linear-gradient-28);}.cls-36{fill:url(#linear-gradient-29);}.cls-37{fill:url(#linear-gradient-30);}.cls-38{fill:url(#linear-gradient-31);}.cls-39{fill:url(#linear-gradient-32);}.cls-40{fill:url(#linear-gradient-33);}.cls-41{fill:url(#linear-gradient-34);}.cls-42{fill:url(#linear-gradient-35);}.cls-43{fill:url(#linear-gradient-36);}.cls-44{fill:url(#linear-gradient-37);}.cls-45{fill:url(#linear-gradient-38);}.cls-46{fill:#7d97f4;}</style><linearGradient id="linear-gradient" x1="234.9" y1="270.96" x2="49.07" y2="40.17" gradientUnits="userSpaceOnUse"><stop offset="0" stop-color="#dae3fe"/><stop offset="1" stop-color="#e9effd"/></linearGradient><linearGradient id="linear-gradient-2" x1="73.43" y1="171.12" x2="131.6" y2="171.12" gradientUnits="userSpaceOnUse"><stop offset="0" stop-color="#3b2863"/><stop offset="1" stop-color="#321550"/></linearGradient><linearGradient id="linear-gradient-3" x1="55.31" y1="196.5" x2="147.8" y2="196.5" xlink:href="#linear-gradient-2"/><linearGradient id="linear-gradient-4" x1="5.46" y1="106.63" x2="203" y2="106.63" xlink:href="#linear-gradient-2"/><linearGradient id="linear-gradient-5" x1="11.92" y1="102.32" x2="195.13" y2="102.32" gradientUnits="userSpaceOnUse"><stop offset="0" stop-color="#69479d"/><stop offset="0.03" stop-color="#4d2f73"/><stop offset="1" stop-color="#69479d"/></linearGradient><linearGradient id="linear-gradient-6" x1="143.27" y1="39.66" x2="144.49" y2="39.66" gradientUnits="userSpaceOnUse"><stop offset="0" stop-color="#fd8246"/><stop offset="1" stop-color="#fe7062"/></linearGradient><linearGradient id="linear-gradient-7" x1="142.11" y1="61.75" x2="190.64" y2="61.75" xlink:href="#linear-gradient-6"/><linearGradient id="linear-gradient-8" x1="191.89" y1="75.58" x2="193.55" y2="75.58" xlink:href="#linear-gradient-6"/><linearGradient id="linear-gradient-9" x1="205.98" y1="55.01" x2="207.13" y2="55.01" xlink:href="#linear-gradient-6"/><linearGradient id="linear-gradient-10" x1="157.81" y1="34.23" x2="207.67" y2="34.23" xlink:href="#linear-gradient-6"/><linearGradient id="linear-gradient-11" x1="155.02" y1="22.59" x2="156.66" y2="22.59" xlink:href="#linear-gradient-6"/><linearGradient id="linear-gradient-12" x1="149.92" y1="48.91" x2="199.91" y2="48.91" xlink:href="#linear-gradient-6"/><linearGradient id="linear-gradient-13" x1="113.83" y1="14.57" x2="114.57" y2="14.57" xlink:href="#linear-gradient-6"/><linearGradient id="linear-gradient-14" x1="113.18" y1="27.85" x2="142.41" y2="27.85" xlink:href="#linear-gradient-6"/><linearGradient id="linear-gradient-15" x1="143.08" y1="36.23" x2="144.22" y2="36.23" xlink:href="#linear-gradient-6"/><linearGradient id="linear-gradient-16" x1="151.78" y1="23.64" x2="152.47" y2="23.64" xlink:href="#linear-gradient-6"/><linearGradient id="linear-gradient-17" x1="122.72" y1="11.16" x2="152.75" y2="11.16" xlink:href="#linear-gradient-6"/><linearGradient id="linear-gradient-18" x1="120.98" y1="4.09" x2="122.1" y2="4.09" xlink:href="#linear-gradient-6"/><linearGradient id="linear-gradient-19" x1="117.88" y1="20.06" x2="148.09" y2="20.06" xlink:href="#linear-gradient-6"/><linearGradient id="linear-gradient-20" x1="30.88" y1="202.63" x2="46.61" y2="202.63" xlink:href="#linear-gradient-5"/><linearGradient id="linear-gradient-21" x1="30.88" y1="199.54" x2="46.17" y2="199.54" xlink:href="#linear-gradient-2"/><linearGradient id="linear-gradient-22" x1="-7836.73" y1="195.24" x2="-7832.3" y2="195.24" gradientTransform="translate(7869.06)" gradientUnits="userSpaceOnUse"><stop offset="0" stop-color="#febbba"/><stop offset="1" stop-color="#ff928e"/></linearGradient><linearGradient id="linear-gradient-23" x1="2.79" y1="206.53" x2="8.82" y2="206.53" xlink:href="#linear-gradient-5"/><linearGradient id="linear-gradient-24" x1="2.83" y1="200.53" x2="11.69" y2="200.53" xlink:href="#linear-gradient-2"/><linearGradient id="linear-gradient-25" x1="-7861.62" y1="192.93" x2="-7856.33" y2="192.93" xlink:href="#linear-gradient-22"/><linearGradient id="linear-gradient-26" x1="7.71" y1="163.06" x2="46.83" y2="163.06" xlink:href="#linear-gradient-2"/><linearGradient id="linear-gradient-27" x1="-7788.76" y1="81.35" x2="-7809.74" y2="108.64" xlink:href="#linear-gradient-22"/><linearGradient id="linear-gradient-28" x1="13.73" y1="112.38" x2="70.73" y2="112.38" xlink:href="#linear-gradient-6"/><linearGradient id="linear-gradient-29" x1="98.78" y1="-9.46" x2="16.79" y2="167.08" gradientUnits="userSpaceOnUse"><stop offset="0" stop-color="#fdf53f"/><stop offset="1" stop-color="#d93c65"/></linearGradient><linearGradient id="linear-gradient-30" x1="-7835.53" y1="98.99" x2="-7833.23" y2="86.94" xlink:href="#linear-gradient-22"/><linearGradient id="linear-gradient-31" x1="-7829.32" y1="76.88" x2="-7842.41" y2="86.9" xlink:href="#linear-gradient-22"/><linearGradient id="linear-gradient-32" x1="25.97" y1="74.54" x2="42.23" y2="74.54" xlink:href="#linear-gradient-2"/><linearGradient id="linear-gradient-33" x1="-7830.94" y1="74.76" x2="-7844.04" y2="84.78" xlink:href="#linear-gradient-22"/><linearGradient id="linear-gradient-34" x1="108.1" y1="29.39" x2="90.99" y2="63.34" gradientTransform="matrix(1, 0, 0, 1, 0, 0)" xlink:href="#linear-gradient-22"/><linearGradient id="linear-gradient-35" x1="-7825.75" y1="112.06" x2="-7833.26" y2="123.33" xlink:href="#linear-gradient-22"/><linearGradient id="linear-gradient-36" x1="1336.85" y1="113.88" x2="1329.49" y2="124.93" gradientTransform="matrix(-1, 0, 0, 1, 1365.18, 0)" xlink:href="#linear-gradient-22"/><linearGradient id="linear-gradient-37" x1="33.78" y1="129.35" x2="61.79" y2="129.35" xlink:href="#linear-gradient-2"/><linearGradient id="linear-gradient-38" x1="48.75" y1="118.95" x2="85.45" y2="118.95" xlink:href="#linear-gradient-2"/></defs><g class="cls-1"><g id="Layer_2" data-name="Layer 2"><g id="Layer_1-2" data-name="Layer 1"><path class="cls-2" d="M183.77,180a75,75,0,0,1-11.49,9.68C134.77,216.54,90.38,208.7,81,206.78,67,204,40.1,198.48,20.63,175.59-8.82,141-4.23,86.4,18.61,50.38c4.18-6.59,26.25-43.16,71.11-49,27.15-3.55,58.8,3.61,81.72,22.81C219.54,64.47,216.12,145.9,183.77,180Z"/><polygon class="cls-3" points="78.44 148.64 73.42 193.61 131.6 193.61 124.02 148.64 78.44 148.64"/><path class="cls-4" d="M144.13,202.81H59c-2.31,0-4.05-1.65-3.6-3.42l1.09-4.32a3.51,3.51,0,0,1,3.45-2.3L142,190.2a3.65,3.65,0,0,1,3.74,2.24l2,6.88C148.23,201.11,146.48,202.81,144.13,202.81Z"/><path class="cls-5" d="M5.46,51.63v103a15.63,15.63,0,0,0,15.22,15.62c37.62,1,134.51,3.32,170.32,2.8a11.51,11.51,0,0,0,11.32-11.17C203,137.94,204.13,80.4,200,53.69a11.82,11.82,0,0,0-11.31-10c-31.52-1-136.31-4.21-172.11-3.41A11.36,11.36,0,0,0,5.46,51.63Z"/><path class="cls-6" d="M11.92,51.13V149A9.06,9.06,0,0,0,20.84,158l165,2.47a8.82,8.82,0,0,0,8.94-8.78l.34-97a6.45,6.45,0,0,0-6.29-6.46L19.07,44.15A7,7,0,0,0,11.92,51.13Z"/><path class="cls-7" d="M196.29,164.48h0L11.92,160.75a.25.25,0,0,1-.25-.26.26.26,0,0,1,.26-.25L196.3,164a.26.26,0,0,1,.25.26A.26.26,0,0,1,196.29,164.48Z"/><path class="cls-7" d="M104.82,193.91a.25.25,0,0,1-.25-.25.26.26,0,0,1,.25-.26l3.52-.05h0a.26.26,0,0,1,0,.51l-3.51,0Z"/><path class="cls-7" d="M58.54,200.4h0a.24.24,0,0,1-.21-.29l.5-3.14A3.47,3.47,0,0,1,62.18,194l37.31-.55a.28.28,0,0,1,.26.25.26.26,0,0,1-.26.26l-37.3.55a3,3,0,0,0-2.9,2.51l-.5,3.14A.26.26,0,0,1,58.54,200.4Z"/><circle class="cls-7" cx="33.12" cy="59.99" r="3.09" transform="translate(-32.87 78.44) rotate(-76.72)"/><circle class="cls-8" cx="33.12" cy="76.33" r="3.09"/><circle class="cls-8" cx="33.12" cy="92.67" r="3.09"/><circle class="cls-8" cx="33.12" cy="109.01" r="3.09" transform="translate(-80.58 116.2) rotate(-76.72)"/><circle class="cls-8" cx="33.12" cy="127.14" r="3.09" transform="translate(-98.23 130.16) rotate(-76.72)"/><circle class="cls-8" cx="33.12" cy="143.48" r="3.09"/><rect class="cls-7" x="43.82" y="47.91" width="3.57" height="109.03" rx="1.12"/><g class="cls-9"><rect class="cls-7" x="52.5" y="67.83" width="91.16" height="3.57" rx="1.12"/><rect class="cls-7" x="52.5" y="79.42" width="33.79" height="3.57" rx="1.12"/><rect class="cls-7" x="149.53" y="102.32" width="33.79" height="3.57" rx="1.12"/><rect class="cls-7" x="104.57" y="113.69" width="33.79" height="3.57" rx="1.12"/><rect class="cls-7" x="91.82" y="124.05" width="20.85" height="3.57" rx="1.12"/><rect class="cls-7" x="53.78" y="133.5" width="20.85" height="3.57" rx="1.12"/><rect class="cls-7" x="53.78" y="124.05" width="33.79" height="3.57" rx="1.12"/><rect class="cls-7" x="117.27" y="124.05" width="55.83" height="3.57" rx="1.12"/><rect class="cls-7" x="130.13" y="90.88" width="48.94" height="3.57" rx="1.12"/><rect class="cls-7" x="52.5" y="113.69" width="48.94" height="3.57" rx="1.12"/><rect class="cls-7" x="90.8" y="79.42" width="73.11" height="3.57" rx="1.12"/><rect class="cls-7" x="52.5" y="90.88" width="73.11" height="3.57" rx="1.12"/><rect class="cls-7" x="52.5" y="102.32" width="91.16" height="3.57" rx="1.12"/></g><g class="cls-10"><path class="cls-11" d="M144,38.77a.49.49,0,0,0-.48.36c-.08.26-.16.52-.23.78a.5.5,0,0,0,1,.26c.07-.25.14-.5.22-.75a.5.5,0,0,0-.33-.62Z"/><path class="cls-12" d="M143.28,42.07a.49.49,0,0,1,.39.58c-.1.51-.18,1-.26,1.55a.5.5,0,1,1-1-.14c.07-.53.16-1.07.26-1.59a.51.51,0,0,1,.5-.41Zm-.59,4.14a.5.5,0,0,1,.47.53c0,.52,0,1,0,1.57a.51.51,0,0,1-.51.49h0a.5.5,0,0,1-.49-.5c0-.54,0-1.08.06-1.62a.49.49,0,0,1,.5-.47Zm.49,4.65q.06.78.15,1.56a.5.5,0,0,1-.44.55.49.49,0,0,1-.55-.43c-.06-.53-.11-1.08-.15-1.61a.49.49,0,0,1,.46-.53h0A.5.5,0,0,1,143.18,50.86Zm.55,4.08c.1.51.22,1,.35,1.53a.5.5,0,0,1-1,.24c-.13-.52-.25-1.05-.36-1.58a.49.49,0,0,1,.39-.58h.11A.49.49,0,0,1,143.73,54.94Zm1.07,4c.17.5.35,1,.54,1.48a.49.49,0,0,1-.28.64.5.5,0,0,1-.65-.28c-.2-.5-.38-1-.56-1.52a.5.5,0,0,1,.32-.63.3.3,0,0,1,.16,0A.5.5,0,0,1,144.8,58.91Zm1.58,3.81c.23.46.47.93.73,1.39a.5.5,0,1,1-.88.48c-.26-.47-.51-1-.75-1.43a.5.5,0,0,1,.23-.67.44.44,0,0,1,.22-.05A.5.5,0,0,1,146.38,62.72Zm2.06,3.57c.28.43.59.86.9,1.28a.5.5,0,1,1-.8.59c-.32-.43-.64-.87-.93-1.32a.49.49,0,0,1,.13-.69.51.51,0,0,1,.28-.09A.53.53,0,0,1,148.44,66.29Zm2.5,3.27c.34.39.7.78,1.06,1.15a.5.5,0,1,1-.72.69c-.37-.38-.74-.78-1.09-1.19a.49.49,0,0,1,.05-.7.41.41,0,0,1,.33-.12A.46.46,0,0,1,150.94,69.56Zm2.9,2.92c.39.34.8.68,1.2,1a.49.49,0,1,1-.62.77c-.42-.33-.83-.68-1.24-1a.5.5,0,0,1,0-.7.52.52,0,0,1,.38-.17A.45.45,0,0,1,153.84,72.48ZM157.1,75c.43.29.87.58,1.32.85a.5.5,0,0,1-.52.85c-.46-.28-.92-.57-1.36-.88a.5.5,0,0,1-.14-.69.52.52,0,0,1,.42-.22A.49.49,0,0,1,157.1,75Zm33.48,1.89a.51.51,0,0,1-.2.68c-.48.25-1,.5-1.45.73a.5.5,0,0,1-.43-.9l1.41-.71a.48.48,0,0,1,.24-.06A.51.51,0,0,1,190.58,76.89Zm-29.93.19c.46.23.94.46,1.41.67a.49.49,0,0,1,.26.66.5.5,0,0,1-.66.25c-.49-.22-1-.45-1.46-.69a.49.49,0,0,1-.22-.67.5.5,0,0,1,.45-.27A.59.59,0,0,1,160.65,77.08Zm26.15,1.6a.5.5,0,0,1-.29.65c-.5.19-1,.37-1.53.53a.5.5,0,0,1-.63-.32.51.51,0,0,1,.33-.63c.49-.16,1-.33,1.48-.52a.57.57,0,0,1,.18,0A.5.5,0,0,1,186.8,78.68Zm-22.37,0c.5.18,1,.34,1.49.48a.5.5,0,0,1-.28,1c-.51-.15-1-.32-1.53-.49a.51.51,0,0,1-.31-.64.48.48,0,0,1,.47-.33ZM182.82,80a.5.5,0,0,1-.37.6q-.8.18-1.59.33a.5.5,0,0,1-.18-1c.51-.1,1-.2,1.54-.32l.12,0A.51.51,0,0,1,182.82,80Zm-14.42-.19c.51.11,1,.2,1.54.29a.5.5,0,1,1-.15,1c-.54-.08-1.07-.18-1.6-.29a.49.49,0,0,1-.38-.59.5.5,0,0,1,.49-.4Zm10.3.94a.5.5,0,0,1-.44.55q-.7.08-1.41.12h-.21a.5.5,0,0,1,0-1h.2c.45,0,.91-.06,1.37-.11h.05A.49.49,0,0,1,178.7,80.72Zm-6.23-.36c.52,0,1.05.06,1.57.08a.5.5,0,1,1,0,1c-.54,0-1.09,0-1.62-.08a.49.49,0,0,1-.46-.53.49.49,0,0,1,.5-.46Z"/><path class="cls-13" d="M193.06,74.86a.52.52,0,0,0-.29.09l-.65.43a.5.5,0,0,0,.54.84l.68-.45a.5.5,0,0,0-.28-.91Z"/></g><g class="cls-10"><path class="cls-14" d="M206.64,54.12a.51.51,0,0,0-.5.41c0,.25-.1.51-.15.77a.5.5,0,1,0,1,.2c.06-.26.11-.52.16-.79a.49.49,0,0,0-.39-.58Z"/><path class="cls-15" d="M175.53,15.88a.49.49,0,0,1,.49.51.5.5,0,0,1-.5.49H174a.49.49,0,0,1-.51-.48.5.5,0,0,1,.48-.51c.43,0,.87,0,1.3,0Zm2.59.15c.52,0,1.06.12,1.58.19a.51.51,0,0,1,.42.57.5.5,0,0,1-.57.42c-.5-.08-1-.14-1.53-.19a.51.51,0,0,1-.45-.54.5.5,0,0,1,.5-.45Zm-6.21.48a.5.5,0,0,1-.44.55c-.51.05-1,.12-1.54.2a.5.5,0,0,1-.57-.42.51.51,0,0,1,.42-.57c.52-.08,1.05-.15,1.58-.21h.06A.5.5,0,0,1,171.91,16.51Zm10.33.19c.52.12,1,.25,1.55.39a.51.51,0,0,1,.34.62.5.5,0,0,1-.62.34c-.49-.14-1-.26-1.49-.38a.5.5,0,0,1,.11-1Zm-14.4.44a.51.51,0,0,1-.37.61c-.5.11-1,.25-1.49.39a.5.5,0,0,1-.28-1c.5-.14,1-.28,1.54-.4l.12,0A.51.51,0,0,1,167.84,17.14Zm18.4.75c.5.19,1,.38,1.48.59a.5.5,0,1,1-.39.92c-.47-.2-1-.39-1.43-.57a.5.5,0,0,1-.3-.64.52.52,0,0,1,.48-.33A.45.45,0,0,1,186.24,17.89Zm-22.35.41a.51.51,0,0,1-.29.64c-.48.18-1,.38-1.43.58a.49.49,0,0,1-.66-.26.49.49,0,0,1,.26-.65c.48-.21,1-.42,1.47-.6a.39.39,0,0,1,.18,0A.53.53,0,0,1,163.89,18.3Zm26.17,1.29c.47.24.94.5,1.39.77a.5.5,0,0,1-.5.86c-.44-.26-.9-.51-1.35-.75a.5.5,0,0,1,.23-.94A.46.46,0,0,1,190.06,19.59Zm-29.95.35a.5.5,0,0,1-.2.68c-.45.24-.91.5-1.35.76a.5.5,0,0,1-.68-.17.51.51,0,0,1,.17-.69c.46-.27.92-.53,1.39-.78a.49.49,0,0,1,.67.2Zm33.52,1.82c.43.3.87.61,1.29.94a.5.5,0,1,1-.61.79c-.41-.32-.83-.62-1.25-.92a.5.5,0,0,1-.12-.69.5.5,0,0,1,.69-.12Zm3.27,2.6c.39.35.78.72,1.15,1.09a.5.5,0,0,1,0,.71.51.51,0,0,1-.71,0c-.36-.36-.74-.72-1.12-1.06a.5.5,0,0,1,0-.71.49.49,0,0,1,.37-.16A.46.46,0,0,1,196.9,24.36Zm2.91,3c.35.41.69.82,1,1.24a.5.5,0,1,1-.79.61c-.31-.41-.64-.81-1-1.2a.49.49,0,0,1,.05-.7.52.52,0,0,1,.33-.12A.48.48,0,0,1,199.81,27.35Zm2.52,3.35q.43.66.84,1.35a.5.5,0,0,1-.86.5c-.26-.44-.54-.88-.82-1.31a.5.5,0,0,1,.15-.69.53.53,0,0,1,.27-.08A.51.51,0,0,1,202.33,30.7Zm2.06,3.63c.23.48.46,1,.66,1.45a.5.5,0,0,1-.26.66.5.5,0,0,1-.65-.26c-.2-.48-.42-1-.64-1.41a.5.5,0,0,1,.23-.67.54.54,0,0,1,.22-.05A.5.5,0,0,1,204.39,34.33ZM206,38.2c.16.5.32,1,.47,1.52a.51.51,0,0,1-.35.62.5.5,0,0,1-.61-.34c-.14-.5-.3-1-.46-1.48a.5.5,0,0,1,.31-.63.51.51,0,0,1,.17,0A.52.52,0,0,1,206,38.2Zm1.07,4c.1.52.19,1,.27,1.57a.5.5,0,1,1-1,.15c-.07-.51-.16-1-.26-1.53a.49.49,0,0,1,.39-.58h.1A.49.49,0,0,1,207.05,42.24Zm.55,4.14c0,.11,0,.22,0,.33,0,.42,0,.84,0,1.26a.5.5,0,1,1-1,0c0-.4,0-.82-.05-1.22,0-.11,0-.21,0-.32a.49.49,0,0,1,.46-.53h0A.49.49,0,0,1,207.6,46.38ZM207.16,50a.5.5,0,0,1,.47.52c0,.53-.08,1.06-.13,1.59a.5.5,0,0,1-.55.44.5.5,0,0,1-.44-.55c.05-.5.09-1,.12-1.54a.51.51,0,0,1,.5-.47Z"/><path class="cls-16" d="M156.16,21.86a.52.52,0,0,0-.29.09l-.65.48a.5.5,0,0,0-.1.7.51.51,0,0,0,.7.1l.63-.47a.5.5,0,0,0-.29-.9Z"/></g><path class="cls-17" d="M154,35.2a.38.38,0,0,0,0,.45l2.44,4a21,21,0,0,0-2,6.36L150.15,48a.4.4,0,0,0-.23.39l.52,5.63a.38.38,0,0,0,.29.34l4.58,1.12a20.23,20.23,0,0,0,3.1,5.89l-1.67,4.41a.4.4,0,0,0,.11.44l4.35,3.62a.39.39,0,0,0,.45,0l4-2.44a20.66,20.66,0,0,0,6.36,2l1.94,4.3a.4.4,0,0,0,.39.23l5.63-.52a.38.38,0,0,0,.34-.29l1.12-4.58a20.47,20.47,0,0,0,5.89-3.1l4.41,1.67a.39.39,0,0,0,.44-.12l3.62-4.34a.39.39,0,0,0,0-.45l-2.44-4a20.6,20.6,0,0,0,2-6.35l4.3-1.94a.4.4,0,0,0,.23-.39l-.52-5.63a.37.37,0,0,0-.29-.34l-4.58-1.13a20.6,20.6,0,0,0-3.1-5.89l1.67-4.41a.38.38,0,0,0-.12-.43L188.63,28a.38.38,0,0,0-.45,0l-4,2.44a20.89,20.89,0,0,0-6.35-2l-1.94-4.29a.4.4,0,0,0-.39-.23l-5.63.52a.37.37,0,0,0-.34.29l-1.13,4.58a20.36,20.36,0,0,0-5.89,3.1l-4.41-1.67a.39.39,0,0,0-.43.11Z"/><path class="cls-18" d="M175.76,43.56a5.36,5.36,0,1,1-.81-.07A5.54,5.54,0,0,1,175.76,43.56Zm1.88,9.09a4.62,4.62,0,0,0-2-8.3h0a4.62,4.62,0,1,0-1.43,9.13,3.82,3.82,0,0,0,.68.06A4.59,4.59,0,0,0,177.64,52.65Z"/><path class="cls-18" d="M175.14,35.15a11.24,11.24,0,0,0-1.41.06h0l-.56.06a13.9,13.9,0,0,0-1.94.4l-.06,0-.33.09a.21.21,0,0,0-.14.19s0,0,0,.06a.19.19,0,0,0,.25.13,14,14,0,0,1,2.81-.56h0a13.48,13.48,0,0,1,14.56,11.59c0,.19,0,.38.06.58a10.62,10.62,0,0,1,.06,1.38,13.45,13.45,0,0,1-26.85,1.08,12.55,12.55,0,0,1,0-1.37,13.52,13.52,0,0,1,1.32-5.69.11.11,0,0,0,0-.08.2.2,0,0,0-.38-.09,13.83,13.83,0,0,0-1.36,5.86,13.11,13.11,0,0,0,.06,1.4,13.85,13.85,0,0,0,27.64-1.1,13.68,13.68,0,0,0-.06-1.43A13.85,13.85,0,0,0,175.14,35.15Z"/><g class="cls-19"><path class="cls-20" d="M114.3,14a.29.29,0,0,0-.27.2c-.07.23-.13.45-.19.68a.27.27,0,0,0,.19.34.28.28,0,0,0,.34-.2c.06-.22.12-.44.19-.66a.27.27,0,0,0-.18-.34Z"/><path class="cls-21" d="M113.84,16a.27.27,0,0,1,.23.32q-.13.69-.21,1.38a.27.27,0,0,1-.31.24.26.26,0,0,1-.24-.3c0-.48.12-.95.21-1.42a.27.27,0,0,1,.28-.23Zm-.36,2.8a.28.28,0,0,1,.27.29c0,.2,0,.4,0,.6s0,.53,0,.79a.27.27,0,0,1-.26.29.28.28,0,0,1-.29-.27c0-.27,0-.54,0-.81s0-.42,0-.62a.28.28,0,0,1,.28-.27Zm.36,3.07c0,.46.11.93.19,1.38a.28.28,0,0,1-.55.1c-.08-.47-.15-.95-.2-1.42a.3.3,0,0,1,.25-.31h0A.29.29,0,0,1,113.84,21.88Zm.48,2.75c.11.44.24.89.39,1.33a.27.27,0,0,1-.18.35.28.28,0,0,1-.35-.17c-.15-.45-.28-.92-.4-1.38a.28.28,0,0,1,.2-.34h.07A.29.29,0,0,1,114.32,24.63Zm.88,2.64c.17.43.37.85.58,1.27a.28.28,0,0,1-.13.37.28.28,0,0,1-.37-.12c-.22-.43-.42-.87-.6-1.31a.28.28,0,0,1,.15-.36.22.22,0,0,1,.11,0A.28.28,0,0,1,115.2,27.27Zm1.25,2.49c.23.39.49.79.76,1.17a.28.28,0,0,1-.46.32c-.27-.39-.54-.8-.78-1.21a.27.27,0,0,1,.1-.38.33.33,0,0,1,.14,0A.28.28,0,0,1,116.45,29.76Zm1.6,2.28c.29.36.6.71.91,1.05a.28.28,0,0,1-.4.38c-.33-.35-.65-.71-1-1.08a.29.29,0,0,1,0-.39.32.32,0,0,1,.18-.06A.28.28,0,0,1,118.05,32Zm1.91,2c.34.31.69.61,1.06.9a.27.27,0,0,1,0,.39.28.28,0,0,1-.39,0c-.37-.3-.74-.61-1.09-.93a.29.29,0,0,1,0-.4.29.29,0,0,1,.21-.09A.29.29,0,0,1,120,34.07Zm2.18,1.73c.38.26.77.51,1.18.74a.29.29,0,0,1,.1.38.27.27,0,0,1-.38.1c-.42-.24-.83-.49-1.22-.76a.28.28,0,0,1-.07-.39.28.28,0,0,1,.23-.12A.3.3,0,0,1,122.14,35.8ZM142.37,37a.27.27,0,0,1-.11.37c-.42.23-.86.44-1.29.63a.28.28,0,1,1-.23-.51c.43-.18.85-.39,1.26-.61a.31.31,0,0,1,.13,0A.26.26,0,0,1,142.37,37Zm-17.83.19c.42.2.85.39,1.28.56a.28.28,0,0,1,.15.36.27.27,0,0,1-.36.16c-.44-.18-.88-.37-1.31-.58a.28.28,0,0,1,.12-.53A.21.21,0,0,1,124.54,37.2Zm15.27,1a.28.28,0,0,1-.17.35c-.45.16-.91.31-1.37.44a.28.28,0,0,1-.34-.2.27.27,0,0,1,.19-.34c.45-.12.9-.27,1.33-.42l.1,0A.28.28,0,0,1,139.81,38.19Zm-12.68,0c.44.15.89.27,1.34.38a.28.28,0,0,1-.13.54c-.46-.11-.93-.24-1.38-.39a.27.27,0,0,1-.18-.35.29.29,0,0,1,.26-.19Zm10,.75a.28.28,0,0,1-.22.33c-.46.09-.94.17-1.41.23a.28.28,0,0,1-.31-.24.27.27,0,0,1,.24-.31c.46-.06.92-.14,1.38-.23h0A.27.27,0,0,1,137.09,39Zm-7.26-.1c.46.08.92.14,1.39.18a.28.28,0,0,1-.05.55c-.48,0-1-.1-1.43-.18a.28.28,0,0,1-.23-.32.3.3,0,0,1,.28-.23Zm4.46.49a.28.28,0,0,1-.26.3c-.42,0-.85,0-1.27,0h-.16a.28.28,0,1,1,0-.55h.17q.61,0,1.23,0h0A.27.27,0,0,1,134.29,39.37Z"/><path class="cls-22" d="M144,35.76a.3.3,0,0,0-.16.05l-.58.38a.28.28,0,0,0,.3.47l.59-.39a.28.28,0,0,0,.07-.39A.29.29,0,0,0,144,35.76Z"/></g><g class="cls-19"><path class="cls-23" d="M152.19,23a.29.29,0,0,0-.28.23c0,.22-.08.45-.13.67a.28.28,0,0,0,.22.33.28.28,0,0,0,.33-.21c0-.23.09-.46.13-.7a.27.27,0,0,0-.22-.32Z"/><path class="cls-24" d="M133.65.13c.47,0,.95,0,1.41.09a.3.3,0,0,1,.25.31.29.29,0,0,1-.31.25c-.45-.05-.91-.08-1.37-.1a.27.27,0,0,1-.26-.29.28.28,0,0,1,.28-.27ZM132.53.4a.27.27,0,0,1-.27.28l-.44,0c-.31,0-.62,0-.93.07a.26.26,0,0,1-.3-.24.27.27,0,0,1,.24-.31l1-.08.45,0h0A.28.28,0,0,1,132.53.4Zm3.93,0q.69.12,1.38.3a.29.29,0,0,1,.2.34.29.29,0,0,1-.34.2c-.44-.12-.89-.21-1.34-.29a.29.29,0,0,1-.23-.32.28.28,0,0,1,.28-.23Zm-6.7.24a.27.27,0,0,1-.22.32c-.45.08-.9.18-1.34.29a.28.28,0,1,1-.14-.54c.45-.11.91-.22,1.38-.3h.05A.27.27,0,0,1,129.76.66Zm9.43.45c.44.15.89.31,1.32.49a.28.28,0,0,1,.15.37.28.28,0,0,1-.36.15c-.42-.18-.86-.34-1.29-.48a.28.28,0,0,1-.17-.35.28.28,0,0,1,.26-.19Zm-12.13.19a.29.29,0,0,1-.18.36c-.43.14-.87.3-1.29.48a.28.28,0,0,1-.21-.52c.43-.18.88-.34,1.32-.49l.09,0A.29.29,0,0,1,127.06,1.3Zm14.73.89c.42.21.84.43,1.24.67a.28.28,0,1,1-.28.48c-.4-.23-.8-.45-1.21-.66a.28.28,0,0,1,.13-.52A.27.27,0,0,1,141.79,2.19Zm-17.32.14a.29.29,0,0,1-.12.38c-.41.2-.81.42-1.21.65a.28.28,0,0,1-.38-.09.29.29,0,0,1,.1-.38c.4-.24.82-.47,1.24-.68a.28.28,0,0,1,.37.12Zm19.75,1.29c.38.27.77.55,1.13.84a.29.29,0,0,1,0,.4.28.28,0,0,1-.39,0c-.35-.28-.72-.56-1.1-.82a.28.28,0,0,1-.07-.39.28.28,0,0,1,.23-.12A.3.3,0,0,1,144.22,3.62Zm2.2,1.77c.34.32.68.65,1,1a.28.28,0,0,1-.41.38c-.31-.33-.64-.66-1-1a.28.28,0,0,1,0-.39.3.3,0,0,1,.21-.09A.29.29,0,0,1,146.42,5.39Zm1.93,2.05c.29.37.58.75.85,1.13a.29.29,0,0,1-.07.39.28.28,0,0,1-.39-.07c-.26-.37-.54-.74-.83-1.1a.29.29,0,0,1,0-.39.3.3,0,0,1,.4,0ZM150,9.76c.24.4.47.82.68,1.23a.28.28,0,1,1-.49.25c-.21-.4-.43-.81-.66-1.2a.28.28,0,0,1,.09-.38.28.28,0,0,1,.15,0A.27.27,0,0,1,150,9.76Zm1.27,2.52c.19.43.35.87.5,1.32a.28.28,0,0,1-.17.35.28.28,0,0,1-.36-.18c-.14-.43-.3-.86-.48-1.28a.28.28,0,0,1,.15-.36.23.23,0,0,1,.11,0A.28.28,0,0,1,151.23,12.28Zm.9,2.67c.12.45.22.92.3,1.38a.27.27,0,1,1-.54.1c-.08-.45-.18-.9-.3-1.34a.29.29,0,0,1,.2-.34h.08A.27.27,0,0,1,152.13,15Zm.51,2.77c0,.34.06.67.08,1,0,.13,0,.26,0,.4a.28.28,0,0,1-.26.29.27.27,0,0,1-.29-.27c0-.13,0-.26,0-.39,0-.32,0-.65-.08-1a.26.26,0,0,1,.24-.3h0A.3.3,0,0,1,152.64,17.72Zm-.16,2.53a.29.29,0,0,1,.27.29c0,.47-.05.94-.09,1.41a.29.29,0,0,1-.31.25.3.3,0,0,1-.25-.31c.05-.45.08-.91.09-1.37a.28.28,0,0,1,.28-.27Z"/><path class="cls-25" d="M121.82,3.61a.33.33,0,0,0-.16.05l-.57.41a.27.27,0,0,0,0,.39.28.28,0,0,0,.39.06l.55-.4a.28.28,0,0,0,.07-.39A.27.27,0,0,0,121.82,3.61Z"/></g><path class="cls-26" d="M120.35,11.77a.23.23,0,0,0,0,.27l1.47,2.44a12.62,12.62,0,0,0-1.19,3.84L118,19.49a.23.23,0,0,0-.13.24l.31,3.4a.25.25,0,0,0,.18.21l2.76.68A12.51,12.51,0,0,0,123,27.58l-1,2.66a.21.21,0,0,0,.07.26l2.62,2.19a.24.24,0,0,0,.28,0l2.43-1.48a12.37,12.37,0,0,0,3.84,1.2l1.17,2.6a.24.24,0,0,0,.24.13l3.4-.31a.23.23,0,0,0,.21-.18l.68-2.76A12.38,12.38,0,0,0,140.5,30l2.66,1a.23.23,0,0,0,.27-.07l2.18-2.63a.21.21,0,0,0,0-.27l-1.47-2.43a12.62,12.62,0,0,0,1.19-3.84l2.6-1.18a.24.24,0,0,0,.14-.23L147.77,17a.24.24,0,0,0-.17-.2l-2.77-.68A12.36,12.36,0,0,0,143,12.54l1-2.66a.25.25,0,0,0-.06-.27l-2.63-2.18a.21.21,0,0,0-.27,0l-2.44,1.47a12.62,12.62,0,0,0-3.84-1.19l-1.17-2.6a.26.26,0,0,0-.24-.14l-3.4.32a.24.24,0,0,0-.21.17L129,8.21a12.49,12.49,0,0,0-3.56,1.87l-2.66-1a.27.27,0,0,0-.27.07Z"/><path class="cls-18" d="M133.49,16.78a3.32,3.32,0,0,1,2.76,3.79,3.3,3.3,0,0,1-3.78,2.76,3.3,3.3,0,0,1-2.76-3.79A3.24,3.24,0,0,1,131,17.38a3.36,3.36,0,0,1,2-.64Zm1.11,5.51a2.76,2.76,0,0,0-1.19-5h0a2.77,2.77,0,0,0-2,.5,2.76,2.76,0,0,0-.61,3.85,2.74,2.74,0,0,0,1.8,1.1,3,3,0,0,0,.41,0A2.77,2.77,0,0,0,134.6,22.29Z"/><path class="cls-18" d="M133.12,11.58a8.44,8.44,0,0,0-.87,0h0a9.08,9.08,0,0,0-1.71.34h0a.29.29,0,0,0-.19.27.25.25,0,0,0,0,.08.27.27,0,0,0,.35.18,8.56,8.56,0,0,1,1.66-.33h0a8,8,0,0,1,7.46,3.69,7.82,7.82,0,0,1,1.2,3.52,5.49,5.49,0,0,1,0,.81,8,8,0,0,1-15.91.65q0-.4,0-.81a7.86,7.86,0,0,1,.79-3.37.5.5,0,0,0,0-.12.27.27,0,0,0-.15-.25.28.28,0,0,0-.38.13,8.44,8.44,0,0,0-.83,3.6,6.33,6.33,0,0,0,0,.87,8.53,8.53,0,1,0,8.58-9.31Z"/><path class="cls-27" d="M46.17,201.87c-2.7.23-7.38.61-11.06.77a10.69,10.69,0,0,1-4.23-.41v.23a.77.77,0,0,0,.73.72,129.71,129.71,0,0,0,14.48,0,.55.55,0,0,0,.45-.82A5.45,5.45,0,0,0,46.17,201.87Z"/><path class="cls-28" d="M35.11,202.64c3.68-.16,8.36-.54,11.06-.77-2.65-3.25-11.06-5.45-11.06-5.45H32.73a10,10,0,0,0-1.85,5.81A10.69,10.69,0,0,0,35.11,202.64Z"/><path class="cls-29" d="M32.33,192.54l.22,4.4a1,1,0,0,0,.86.95,3.83,3.83,0,0,0,1.79-.15,1.18,1.18,0,0,0,.79-.91l.77-4.29Z"/><path class="cls-30" d="M4.75,206.94a2.33,2.33,0,0,1-1.92-1.83v0a2.1,2.1,0,0,0,1,2.24,5.27,5.27,0,0,0,2.84.57,2.58,2.58,0,0,0,2.12-1.26v0C7.94,207.23,6.7,207.29,4.75,206.94Z"/><path class="cls-31" d="M10.27,193.9h-2c-3-.08-4.86,8.06-5.48,11.21a2.33,2.33,0,0,0,1.92,1.83c2,.35,3.19.29,4.07-.28,1.61-2.74,2.41-6.75,2.8-9.1A3.42,3.42,0,0,0,10.27,193.9Z"/><path class="cls-32" d="M8.56,189.82l-1.09,4.32a1.2,1.2,0,0,0,.61,1.34,4.15,4.15,0,0,0,2.25.54,1,1,0,0,0,.81-.65l1.59-4.56Z"/><path class="cls-33" d="M46.83,132.82s-9.72,60.78-9.56,61.11a8.11,8.11,0,0,1-5.61.16s.88-32.49,2.94-45c0,0-16.6,29-21.87,43.51a13.22,13.22,0,0,1-5-1.82s17.87-52.27,22.63-59.24Z"/><polygon class="cls-7" points="35.09 148.6 38.69 142.84 41.32 142.32 41.27 142.08 38.54 142.63 34.88 148.47 35.09 148.6"/><path class="cls-34" d="M91.45,73.31A64.36,64.36,0,0,0,80.9,76.6a3.61,3.61,0,0,0-1.78,1.79c-1.2,2.62-4.77,9.17-11.69,12.3a19.17,19.17,0,0,1,3.3,8.71c4.16-3.1,7.75-8.27,9.47-16.75a3.4,3.4,0,0,0,3-.08,29.47,29.47,0,0,0,2.62-1.49,3.44,3.44,0,0,0,1.52-2,12,12,0,0,0,.11-3.16l3.38-1A1.19,1.19,0,0,0,91.45,73.31Z"/><path class="cls-35" d="M70.73,99.4a19.17,19.17,0,0,0-3.3-8.71c-4.31,1.94-9.9,2.57-17,.1a7.79,7.79,0,0,0-2-.41c-3.8-.22-16.3-.62-26.64,2.79a8,8,0,0,0-4.85,4.42c-2.8,6.42-7.33,21,5.25,28.43a31.2,31.2,0,0,1,3-5.75c-2-3.41-2.62-8.08,1-14.16,2.62,7.08,3.85,17.41,4.11,22a9.9,9.9,0,0,1-.77,4.4l-.07.15a.52.52,0,0,0,.37.71,59.75,59.75,0,0,0,16.64,1,.9.9,0,0,0,.81-.7c3.44-14.5,3.45-24.4,2.61-30.65C53.05,103.69,62.9,105.22,70.73,99.4Z"/><path class="cls-36" d="M47.33,94.16s1.68,2.65,2.51,8.91Z"/><path class="cls-37" d="M32.37,81.93A96.59,96.59,0,0,1,31,91.75a.77.77,0,0,0,.37.87,7.4,7.4,0,0,0,7.14-.11,1.61,1.61,0,0,0,.89-1.5l-.31-7.32Z"/><path class="cls-38" d="M39.26,72.25s2.29,5.26,2.45,8,.75,4.55-2.45,5.11a6.78,6.78,0,0,1-7.34-3.79s-2.28-4.23-1.77-6S39.26,72.25,39.26,72.25Z"/><path class="cls-39" d="M33,79.62l.18-.08a.44.44,0,0,0,.22-.61c-.45-.87-1.33-2.86-.2-3.32,1.47-.6,7.26-1.78,8.51-3.84a3.83,3.83,0,0,0-1.47-5.25.21.21,0,0,0-.28.1l-.14.25a.22.22,0,0,1-.4,0h0a.22.22,0,0,0-.39-.06c-.38.62-1.42,1.61-4.19,2.12-3.94.73-6.55,2.33-6.61,5a.22.22,0,0,1-.34.18c-.29-.18-.75-.26-1.38.26-1.08.91-.64,3.27,1.74,5.21a.22.22,0,0,1,0,.35c-.43.28-1.07.94.59,1.83a5.5,5.5,0,0,0,3.49.76.23.23,0,0,0,.18-.26L32,79.88a.21.21,0,0,1,.21-.26Z"/><path class="cls-40" d="M33.11,80.12s-.87-3.36-2.38-2.42.78,3.77,2,3.89Z"/><path class="cls-41" d="M82,81.83a.25.25,0,0,1-.16,0,.26.26,0,0,1,0-.36A23.68,23.68,0,0,1,85,78c.33-.19.51-.37.55-.55a.43.43,0,0,0,0-.32l-2.62.53-1.48,1.26a.25.25,0,0,1-.35,0,.25.25,0,0,1,0-.36l1.52-1.31.11,0,2.87-.58a.27.27,0,0,1,.26.11,1,1,0,0,1,.2.86,1.4,1.4,0,0,1-.79.86,23.92,23.92,0,0,0-3.14,3.35A.25.25,0,0,1,82,81.83Z"/><path class="cls-42" d="M33.05,131.19,43.39,131s-9-2.55-9.58-1.85a31.56,31.56,0,0,1-8.65-8.84,31.2,31.2,0,0,0-3,5.75C24.87,127.63,28.48,130.43,33.05,131.19Z"/><path class="cls-43" d="M32.76,129.4s-.22,4.12,5.19,3.52c2.94-.33,7.68-3.07,7.68-3.07S33.27,129.82,32.76,129.4Z"/><path class="cls-44" d="M34.87,130.5h.06l25.71,0a1.14,1.14,0,1,0,0-2.28l-25.7,0a1.14,1.14,0,0,0-.06,2.27Z"/><path class="cls-45" d="M83.74,107.41H62.34a4.07,4.07,0,0,0-3.69,2.32l-9.9,20.76h26.6a2.5,2.5,0,0,0,2.31-1.55l7.67-19.22A1.69,1.69,0,0,0,83.74,107.41Z"/><path class="cls-7" d="M68.66,118.06c-.46,1.42-.12,2.81.77,3.09s2-.64,2.44-2.07.12-2.81-.76-3.09S69.13,116.63,68.66,118.06Z"/><path class="cls-46" d="M93.7,15.92a.38.38,0,0,1-.38-.38c0-2.17-.71-12.92-10.06-15.16C72.85-2.12,68.09,8.59,68.09,8.59s-12.88-5-15.35,8.4c-8.08,2-10.17,12.64-4.92,17.86a4.51,4.51,0,0,0,3.12,1.31l50.57.46a3.34,3.34,0,0,0,3.23-2.41C106.32,28.81,108.39,16.27,93.7,15.92Z"/><path class="cls-7" d="M92.54,16.15a.39.39,0,0,1-.38-.38c0-2.08-.7-12-9.51-14.13C72.81-.7,68.31,9.31,68.31,9.31S56.13,4.64,53.79,17.15C46.23,19,44.21,28.76,49,33.68a4.46,4.46,0,0,0,3.18,1.37l47.61.43A3.35,3.35,0,0,0,103,33.06C104.49,27.93,106.26,16.49,92.54,16.15Z"/><path class="cls-8" d="M70.8,12h2.47a1,1,0,0,1,1,1V25.16a0,0,0,0,1,0,0h-4.5a0,0,0,0,1,0,0V13A1,1,0,0,1,70.8,12Z" transform="translate(-0.69 2.92) rotate(-2.31)"/><path class="cls-8" d="M68.77,25.05s2.76,4.88,3.69,6.36a.29.29,0,0,0,.51,0l3-6.57c.11-.2,0-.5-.16-.5l-6.94.29C68.76,24.59,68.68,24.86,68.77,25.05Z"/><path class="cls-8" d="M79.19,18.34h2.47a1,1,0,0,1,1,1V31.51a0,0,0,0,1,0,0h-4.5a0,0,0,0,1,0,0V19.32A1,1,0,0,1,79.19,18.34Z" transform="translate(161.27 48.67) rotate(179.16)"/><path class="cls-8" d="M83.92,18.54s-2.63-4.95-3.52-6.45a.29.29,0,0,0-.51,0L76.67,18.6c-.12.2,0,.5.15.5l6.94-.1C83.92,19,84,18.73,83.92,18.54Z"/></g></g></g></svg>